<svg width="32" height="32" viewBox="0 0 32 32" fill="none" xmlns="http://www.w3.org/2000/svg">
<circle cx="15.9993" cy="10.2065" r="7.05792" stroke="#4F4F4F" stroke-width="3"/>
<mask id="path-2-inside-1_864_7068" fill="white">
<path fill-rule="evenodd" clip-rule="evenodd" d="M28.4904 29.8281C28.5284 29.4791 28.5479 29.1253 28.5479 28.7676C28.5479 22.6896 22.9302 17.7625 16.0005 17.7625C9.07078 17.7625 3.45312 22.6896 3.45312 28.7676C3.45312 29.1253 3.47259 29.4791 3.51063 29.8281H28.4904Z"/>
</mask>
<path d="M28.4904 29.8281V32.8281H31.1811L31.4727 30.1532L28.4904 29.8281ZM3.51063 29.8281L0.528303 30.1532L0.819906 32.8281H3.51063V29.8281ZM25.5479 28.7676C25.5479 29.0164 25.5344 29.2617 25.508 29.503L31.4727 30.1532C31.5225 29.6966 31.5479 29.2343 31.5479 28.7676H25.5479ZM16.0005 20.7625C21.6551 20.7625 25.5479 24.704 25.5479 28.7676H31.5479C31.5479 20.6752 24.2054 14.7625 16.0005 14.7625V20.7625ZM6.45312 28.7676C6.45312 24.704 10.3459 20.7625 16.0005 20.7625V14.7625C7.79565 14.7625 0.453125 20.6752 0.453125 28.7676H6.45312ZM6.49296 29.503C6.46666 29.2617 6.45312 29.0164 6.45312 28.7676H0.453125C0.453125 29.2343 0.478519 29.6966 0.528303 30.1532L6.49296 29.503ZM3.51063 32.8281H28.4904V26.8281H3.51063V32.8281Z" fill="#4F4F4F" mask="url(#path-2-inside-1_864_7068)"/>
</svg>
