<svg width="27" height="27" viewBox="0 0 27 27" fill="none" xmlns="http://www.w3.org/2000/svg">
<g clip-path="url(#clip0_173_11967)">
<path fill-rule="evenodd" clip-rule="evenodd" d="M2.57141 19.1568V8.04465L7.92921 13.6008L2.57141 19.1568ZM23.8743 21.4933C23.5101 21.8741 22.997 22.1113 22.4286 22.1113H4.57141C4.00312 22.1113 3.49018 21.8742 3.12607 21.4937L9.33301 15.0565L10.5636 16.3324C11.3445 17.1421 12.3877 17.5879 13.5006 17.5879C14.6131 17.5879 15.657 17.1421 16.4378 16.3324L17.6681 15.0565L23.8743 21.4933ZM24.4286 8.04582V19.1555L19.0723 13.6004L24.4286 8.04582ZM23.9673 5.61145L15 14.9108C14.6007 15.3252 14.0675 15.5535 13.5007 15.5535C12.9333 15.5535 12.4007 15.3252 12.0014 14.9108L3.03333 5.61068C3.4002 5.1698 3.95303 4.88916 4.57141 4.88916H22.4286C23.0473 4.88916 23.6004 5.17013 23.9673 5.61145Z" fill="url(#paint0_linear_173_11967)"/>
</g>
<defs>
<linearGradient id="paint0_linear_173_11967" x1="2.57141" y1="4.88916" x2="39.0657" y2="17.5028" gradientUnits="userSpaceOnUse">
<stop stop-color="#F92F03"/>
<stop offset="1" stop-color="#F99941"/>
</linearGradient>
<clipPath id="clip0_173_11967">
<rect width="22.5" height="18" fill="white" transform="translate(2.25 4.5)"/>
</clipPath>
</defs>
</svg>
