<svg width="27" height="27" viewBox="0 0 27 27" fill="none" xmlns="http://www.w3.org/2000/svg">
<path fill-rule="evenodd" clip-rule="evenodd" d="M3.07727 13.4999C3.07727 7.75293 7.75305 3.07715 13.5001 3.07715C19.2471 3.07715 23.9229 7.75293 23.9229 13.4999C23.9229 19.247 19.2471 23.9227 13.5001 23.9227C7.75305 23.9227 3.07727 19.247 3.07727 13.4999ZM14.5 6.74988C14.5 6.19759 14.0523 5.74988 13.5 5.74988C12.9477 5.74988 12.5 6.19759 12.5 6.74988V14.6249C12.5 15.1772 12.9477 15.6249 13.5 15.6249H20.25C20.8023 15.6249 21.25 15.1772 21.25 14.6249C21.25 14.0726 20.8023 13.6249 20.25 13.6249H14.5V6.74988Z" fill="url(#paint0_linear_173_11981)"/>
<defs>
<linearGradient id="paint0_linear_173_11981" x1="3.07727" y1="3.07715" x2="39.3502" y2="12.9557" gradientUnits="userSpaceOnUse">
<stop stop-color="#F92F03"/>
<stop offset="1" stop-color="#F99941"/>
</linearGradient>
</defs>
</svg>
