<svg width="24" height="30" viewBox="0 0 24 30" fill="none" xmlns="http://www.w3.org/2000/svg">
<path d="M22.6899 16.2003C23.4898 20.0669 22.4233 27.7334 14.1567 30C18.4898 26.4001 17.6901 23.0668 15.9567 20.4669C15.6678 21.7335 14.5824 23.064 12.7433 23.8855C16.0766 18.0856 13.2235 13.4003 11.2902 11.1337C12.1568 20.4669 1.42362 20.0002 6.89017 29.2001C-2.9097 24.4002 -0.109789 14.4003 2.35684 10.6003C2.62352 11.6003 3.4902 13.7603 4.82352 14.4003C5.73017 2.77377 12.6234 -0.0439411 15.9567 0.000515129C12.2234 3.93379 19.09 9.06702 18.4233 15.067C19.0006 13.6954 19.9966 10.5603 23.3566 9.60035C22.6899 10.0003 21.8899 12.3336 22.6899 16.2003Z" fill="url(#paint0_linear_179_11706)"/>
<defs>
<linearGradient id="paint0_linear_179_11706" x1="0" y1="0" x2="41.7785" y2="8.85826" gradientUnits="userSpaceOnUse">
<stop stop-color="#F92F03"/>
<stop offset="1" stop-color="#F99941"/>
</linearGradient>
</defs>
</svg>
