<svg width="27" height="27" viewBox="0 0 27 27" fill="none" xmlns="http://www.w3.org/2000/svg">
<path fill-rule="evenodd" clip-rule="evenodd" d="M4.92871 9.33096C4.92871 4.86104 8.85403 1.08447 13.5002 1.08447C18.1463 1.08447 22.0712 4.86088 22.0712 9.33111C22.0712 12.1983 21.195 15.053 19.2291 18.5874C18.6825 19.5696 18.0584 20.5963 17.3216 21.7265C16.4516 23.0617 14.87 25.0156 14.5618 25.3937L14.5275 25.4329C14.2522 25.7206 13.8902 25.8756 13.5031 25.8756C13.1128 25.8756 12.7487 25.7187 12.478 25.4327L12.4506 25.4018C12.2488 25.1534 10.5094 23.0068 9.59496 21.5978C8.72575 20.2581 8.01239 19.058 7.41407 17.9292C5.69532 14.6906 4.92871 12.0385 4.92871 9.33096ZM9.69316 9.47805C9.69316 7.38733 11.4009 5.68668 13.5002 5.68668C15.5995 5.68668 17.3075 7.38733 17.3075 9.47805C17.3075 11.5686 15.5995 13.2692 13.5002 13.2692C11.4009 13.2692 9.69316 11.5686 9.69316 9.47805Z" fill="url(#paint0_linear_173_11974)"/>
<defs>
<linearGradient id="paint0_linear_173_11974" x1="4.92871" y1="1.08447" x2="35.873" y2="6.91175" gradientUnits="userSpaceOnUse">
<stop stop-color="#F92F03"/>
<stop offset="1" stop-color="#F99941"/>
</linearGradient>
</defs>
</svg>
