<svg width="20" height="23" viewBox="0 0 20 23" fill="none" xmlns="http://www.w3.org/2000/svg">
<path fill-rule="evenodd" clip-rule="evenodd" d="M7.63885 7.08107C7.61398 7.10514 7.5846 7.13239 7.55183 7.16197C6.14616 4.87632 4.58441 2.33561 3.45903 0.501868C4.13556 0.226286 4.76539 0.15097 5.36017 0.274436C6.67181 0.541227 7.52099 1.70815 8.17833 2.81482C9.15186 4.45193 8.99994 5.72 7.66944 7.05111L7.63885 7.08107ZM0.378095 5.28873C0.258475 4.2445 0.520148 3.18743 1.07122 2.34645C2.78215 5.13388 5.35032 9.30956 6.9363 11.887C7.12362 12.2613 7.36198 12.6591 7.66375 13.0768C8.01495 13.5482 8.36646 13.9331 8.70738 14.2474C9.73939 15.2842 14.1096 19.6362 16.7397 22.254C15.9494 22.6813 14.9924 22.8414 14.0415 22.6953C13.6413 22.6338 13.2525 22.5196 12.8856 22.3566C12.4462 22.21 8.32835 20.7134 4.45353 15.4305C0.576634 10.1464 0.386969 5.77021 0.378095 5.28873ZM18.872 20.1436C19.0426 19.8088 19.1453 19.4671 19.1818 19.1164C19.3212 17.7856 18.4632 16.6253 17.6053 15.6659C16.9283 14.9084 16.2845 14.5056 15.5785 14.3971C14.9648 14.3028 14.2925 14.441 13.527 14.8204C15.2285 16.5163 17.3404 18.6192 18.872 20.1436Z" fill="url(#paint0_linear_179_11740)"/>
<defs>
<linearGradient id="paint0_linear_179_11740" x1="1.09204" y1="-0.385254" x2="35.4435" y2="14.889" gradientUnits="userSpaceOnUse">
<stop stop-color="#F92F03"/>
<stop offset="1" stop-color="#F99941"/>
</linearGradient>
</defs>
</svg>
